<?xml version="1.0" encoding="utf-8"?>
<!-- Generator: Adobe Illustrator 27.3.1, SVG Export Plug-In . SVG Version: 6.00 Build 0)  -->
<!DOCTYPE svg PUBLIC "-//W3C//DTD SVG 1.1//EN" "http://www.w3.org/Graphics/SVG/1.1/DTD/svg11.dtd" [
	<!ENTITY ns_extend "http://ns.adobe.com/Extensibility/1.0/">
	<!ENTITY ns_ai "http://ns.adobe.com/AdobeIllustrator/10.0/">
	<!ENTITY ns_graphs "http://ns.adobe.com/Graphs/1.0/">
	<!ENTITY ns_vars "http://ns.adobe.com/Variables/1.0/">
	<!ENTITY ns_imrep "http://ns.adobe.com/ImageReplacement/1.0/">
	<!ENTITY ns_sfw "http://ns.adobe.com/SaveForWeb/1.0/">
	<!ENTITY ns_custom "http://ns.adobe.com/GenericCustomNamespace/1.0/">
	<!ENTITY ns_adobe_xpath "http://ns.adobe.com/XPath/1.0/">
]>
<svg version="1.1" id="Layer_1" xmlns:x="&ns_extend;" xmlns:i="&ns_ai;" xmlns:graph="&ns_graphs;"
	 xmlns="http://www.w3.org/2000/svg" xmlns:xlink="http://www.w3.org/1999/xlink" x="0px" y="0px" width="72.7px" height="72px"
	 viewBox="0 0 72.7 72" style="enable-background:new 0 0 72.7 72;" xml:space="preserve">
<style type="text/css">
	.st0{fill:#FFFFFF;}
</style>
<metadata>
	<sfw  xmlns="&ns_sfw;">
		<slices></slices>
		<sliceSourceBounds  bottomLeftOrigin="true" height="72" width="72" x="-0.5" y="0"></sliceSourceBounds>
	</sfw>
</metadata>
<circle class="st0" cx="36.3" cy="36" r="36"/>
<g>
	<g>
		<path d="M37.6,70.9c-0.9,0-1.7,0-2.6,0c-0.1,0-0.1,0-0.2,0c-0.7-0.1-1.5-0.1-2.2-0.2c-2.5-0.2-5-0.8-7.4-1.6
			c-5.6-1.9-10.4-5-14.4-9.3c-5.8-6.3-9-13.7-9.4-22.3c-0.2-2.9,0.1-5.8,0.7-8.6C3.6,21.7,7,15.6,12.3,10.6
			C18.5,4.7,26,1.5,34.6,1.1c1.9-0.1,3.8,0,5.7,0.2c2.4,0.3,4.7,0.8,6.9,1.5c5.5,1.8,10.2,4.8,14.2,8.9c2.5,2.6,4.6,5.6,6.3,8.8
			c2.8,5.7,4,11.7,3.5,18.1c-0.2,2.1-0.5,4.2-1,6.2c-1.7,6.3-4.9,11.8-9.6,16.3c-3.5,3.4-7.6,6-12.3,7.7c-3.1,1.1-6.2,1.8-9.5,2
			C38.4,70.8,38,70.9,37.6,70.9z M39,43.5c-0.1,0-0.2,0.1-0.3,0.1c-2.7,0.9-5.5,1.9-8.2,2.8c-0.2,0.1-0.3,0.2-0.3,0.4
			c0,4.8,0,9.6,0,14.4c0,0.2,0.1,0.3,0.3,0.4c1.3,0.3,2.7,0.5,4.1,0.6c2.3,0.1,4.5,0,6.7-0.4c5.3-1,9.9-3.4,13.7-7.3
			c5.3-5.3,7.9-11.8,7.7-19.3c0-1.8-0.3-3.6-0.7-5.3c-1.9-7.6-6.4-13.4-13.2-17.2c-0.1,0-0.2-0.1-0.3-0.1c0,0.3,0,0.5,0,0.7
			c-0.1,1.8-0.1,3.5-0.2,5.3c-0.1,1.8-0.1,3.5-0.2,5.3c-0.1,1.8-0.1,3.6-0.2,5.4c-0.1,1.7-0.1,3.4-0.2,5.2c-0.1,2.2-0.2,4.4-0.3,6.6
			c-0.1,1.8-0.1,3.5-0.2,5.3c-0.1,1.8-0.1,3.6-0.2,5.3c-0.1,1.6-0.1,3.1-0.2,4.7c0,0.2-0.1,0.3-0.3,0.3c-1.1,0-2.2,0-3.3,0
			c-1,0-2.1,0-3.1,0c-0.2,0-0.3,0-0.3-0.2c0-0.7-0.1-1.4-0.1-2.2c-0.1-1.2-0.1-2.3-0.2-3.5c-0.1-1.9-0.2-3.9-0.3-5.8
			C39.1,44.5,39.1,44,39,43.5z M22.5,58.3c0-0.3,0-0.5,0-0.7c-0.1-1.1-0.1-2.2-0.2-3.3c-0.1-1.4-0.2-2.8-0.3-4.2
			c-0.2-1.2-0.2-2.3-0.3-3.5c-0.1-1.7-0.2-3.4-0.4-5.1c-0.1-1.1-0.1-2.2-0.2-3.3c-0.1-1.4-0.2-2.8-0.3-4.2c-0.1-1.1-0.1-2.2-0.2-3.4
			c-0.1-1.7-0.2-3.4-0.4-5.1c-0.1-1.1-0.1-2.2-0.2-3.3c-0.1-1.6-0.2-3.3-0.3-4.9c0-0.6-0.1-0.4,0.4-0.5c2.5-0.4,4.9-0.9,7.4-1.3
			c0.7-0.1,1.5-0.3,2.2-0.4c0.1,7.9,0.3,15.8,0.4,23.6c0.1,0,0.2,0,0.3-0.1c2.6-0.7,5.1-1.3,7.7-2c0.3-0.1,0.3-0.2,0.3-0.5
			c0-4.1,0-8.1,0-12.2c0-2.9,0-5.9,0-8.8c0-1.8,0-3.7,0-5.5C29,8.7,15.8,14,11.3,27.9C7.1,40.5,13.3,52.9,22.5,58.3z"/>
	</g>
</g>
</svg>
